<mxfile host="www.draw.io" modified="2020-03-11T05:35:08.435Z" agent="Mozilla/5.0 (Macintosh; Intel Mac OS X 10_13_6) AppleWebKit/537.36 (KHTML, like Gecko) Chrome/80.0.3987.132 Safari/537.36" etag="FKOpYQ_tDAlH8AEOYcYA" version="12.8.2" type="github">
  <diagram id="AQYtgXFm_w9sF8LbF3-G" name="Page-1">
    <mxGraphModel dx="903" dy="623" grid="0" gridSize="10" guides="1" tooltips="1" connect="1" arrows="1" fold="1" page="0" pageScale="1" pageWidth="827" pageHeight="1169" math="0" shadow="0">
      <root>
        <mxCell id="0" />
        <mxCell id="1" parent="0" />
        <mxCell id="uxpfEsC84P-XrXVZAXns-1" value="" style="ellipse;whiteSpace=wrap;html=1;aspect=fixed;fillColor=none;strokeColor=#66B2FF;dashed=1;strokeWidth=9;shadow=0;perimeterSpacing=2;opacity=60;" vertex="1" parent="1">
          <mxGeometry x="160" y="100" width="390" height="390" as="geometry" />
        </mxCell>
      </root>
    </mxGraphModel>
  </diagram>
</mxfile>
